<?xml version="1.0" standalone="no"?>
<svg xmlns:xlink="http://www.w3.org/1999/xlink" id="wave" style="transform:rotate(180deg); transition: 0.3s" viewBox="0 0 1440 100" version="1.1" xmlns="http://www.w3.org/2000/svg"><defs><linearGradient id="sw-gradient-0" x1="0" x2="0" y1="1" y2="0"><stop stop-color="rgba(255, 249, 234, 1)" offset="0%"/><stop stop-color="rgba(255, 249, 234, 1)" offset="100%"/></linearGradient></defs><path style="transform:translate(0, 0px); opacity:1" fill="url(#sw-gradient-0)" d="M0,60L40,58.3C80,57,160,53,240,43.3C320,33,400,17,480,16.7C560,17,640,33,720,43.3C800,53,880,57,960,55C1040,53,1120,47,1200,48.3C1280,50,1360,60,1440,60C1520,60,1600,50,1680,53.3C1760,57,1840,73,1920,78.3C2000,83,2080,77,2160,70C2240,63,2320,57,2400,48.3C2480,40,2560,30,2640,36.7C2720,43,2800,67,2880,68.3C2960,70,3040,50,3120,46.7C3200,43,3280,57,3360,61.7C3440,67,3520,63,3600,61.7C3680,60,3760,60,3840,53.3C3920,47,4000,33,4080,30C4160,27,4240,33,4320,35C4400,37,4480,33,4560,33.3C4640,33,4720,37,4800,33.3C4880,30,4960,20,5040,15C5120,10,5200,10,5280,10C5360,10,5440,10,5520,21.7C5600,33,5680,57,5720,68.3L5760,80L5760,100L5720,100C5680,100,5600,100,5520,100C5440,100,5360,100,5280,100C5200,100,5120,100,5040,100C4960,100,4880,100,4800,100C4720,100,4640,100,4560,100C4480,100,4400,100,4320,100C4240,100,4160,100,4080,100C4000,100,3920,100,3840,100C3760,100,3680,100,3600,100C3520,100,3440,100,3360,100C3280,100,3200,100,3120,100C3040,100,2960,100,2880,100C2800,100,2720,100,2640,100C2560,100,2480,100,2400,100C2320,100,2240,100,2160,100C2080,100,2000,100,1920,100C1840,100,1760,100,1680,100C1600,100,1520,100,1440,100C1360,100,1280,100,1200,100C1120,100,1040,100,960,100C880,100,800,100,720,100C640,100,560,100,480,100C400,100,320,100,240,100C160,100,80,100,40,100L0,100Z"/></svg>